<svg id="Group_273906" data-name="Group 273906" xmlns="http://www.w3.org/2000/svg" xmlns:xlink="http://www.w3.org/1999/xlink" width="180" height="110" viewBox="0 0 180 110">
  <defs>
    <clipPath id="clip-path">
      <rect id="Rectangle_232053" data-name="Rectangle 232053" width="32" height="32" transform="translate(-11597 2513)" fill="#fff" stroke="#707070" stroke-width="1"/>
    </clipPath>
  </defs>
  <g id="Rectangle_232051" data-name="Rectangle 232051" fill="#fff" stroke="#c1c1c1" stroke-width="1">
    <rect width="180" height="110" rx="12" stroke="none"/>
    <rect x="0.5" y="0.5" width="179" height="109" rx="11.5" fill="none"/>
  </g>
  <path id="Rectangle_232052" data-name="Rectangle 232052" d="M12,0H38a0,0,0,0,1,0,0V110a0,0,0,0,1,0,0H12A12,12,0,0,1,0,98V12A12,12,0,0,1,12,0Z" fill="#21263c"/>
  <g id="Mask_Group_256902" data-name="Mask Group 256902" transform="translate(11690 -2481)" clip-path="url(#clip-path)">
    <path id="moon" d="M15,24a12.021,12.021,0,0,1-8.914-3.966,11.9,11.9,0,0,1-3.02-9.309A12.122,12.122,0,0,1,13.085.152a13.061,13.061,0,0,1,5.031.2,2.5,2.5,0,0,1,1.108,4.226c-4.56,4.166-4.164,10.644.807,14.41a2.5,2.5,0,0,1-.7,4.32A13.894,13.894,0,0,1,15,24Zm.076-22a10.793,10.793,0,0,0-1.677.127,10.093,10.093,0,0,0-8.344,8.8A9.927,9.927,0,0,0,7.572,18.7a10.476,10.476,0,0,0,11.092,2.73.5.5,0,0,0,.139-.857c-5.929-4.478-6.4-12.486-.948-17.449a.459.459,0,0,0,.128-.466.49.49,0,0,0-.356-.361A10.657,10.657,0,0,0,15.076,2Z" transform="matrix(0.809, -0.588, 0.588, 0.809, -11599.422, 2527.337)" fill="#838383"/>
  </g>
  <text id="Dark_Mode" data-name="Dark Mode" transform="translate(109 78)" fill="#212529" font-size="10" font-family="Inter" font-weight="500"><tspan x="-26" y="0">Dark Mode</tspan></text>
  <rect id="Rectangle_232054" data-name="Rectangle 232054" width="32" height="8" rx="2" transform="translate(3 24)" fill="#408dfb"/>
</svg>
