<svg id="Group_273907" data-name="Group 273907" xmlns="http://www.w3.org/2000/svg" xmlns:xlink="http://www.w3.org/1999/xlink" width="180" height="110" viewBox="0 0 180 110">
  <defs>
    <clipPath id="clip-path">
      <rect id="Rectangle_232053" data-name="Rectangle 232053" width="32" height="32" transform="translate(-11597 2513)" fill="#fff" stroke="#707070" stroke-width="1"/>
    </clipPath>
  </defs>
  <g id="Rectangle_232051" data-name="Rectangle 232051" fill="#fff" stroke="#c1c1c1" stroke-width="1">
    <rect width="180" height="110" rx="12" stroke="none"/>
    <rect x="0.5" y="0.5" width="179" height="109" rx="11.5" fill="none"/>
  </g>
  <g id="Rectangle_232052" data-name="Rectangle 232052" fill="#f7f7fe" stroke="#c1c1c1" stroke-width="1">
    <path d="M12,0H38a0,0,0,0,1,0,0V110a0,0,0,0,1,0,0H12A12,12,0,0,1,0,98V12A12,12,0,0,1,12,0Z" stroke="none"/>
    <path d="M12,.5H37a.5.5,0,0,1,.5.5V109a.5.5,0,0,1-.5.5H12A11.5,11.5,0,0,1,.5,98V12A11.5,11.5,0,0,1,12,.5Z" fill="none"/>
  </g>
  <g id="Mask_Group_256902" data-name="Mask Group 256902" transform="translate(11690 -2481)" clip-path="url(#clip-path)">
    <path id="brightness" d="M12,17a5,5,0,1,1,5-5A5,5,0,0,1,12,17Zm0-8a3,3,0,1,0,3,3A3.009,3.009,0,0,0,12,9Zm1-5V1a1,1,0,0,0-2,0V4a1,1,0,0,0,2,0Zm0,19V20a1,1,0,0,0-2,0v3a1,1,0,0,0,2,0ZM5,12a1,1,0,0,0-1-1H1a1,1,0,0,0,0,2H4A1,1,0,0,0,5,12Zm19,0a1,1,0,0,0-1-1H20a1,1,0,0,0,0,2h3A1,1,0,0,0,24,12ZM6.71,6.71a1,1,0,0,0,0-1.41l-2-2A1,1,0,0,0,3.3,4.71l2,2A.982.982,0,0,0,6.01,7a1.024,1.024,0,0,0,.71-.29Zm14,14a1,1,0,0,0,0-1.41l-2-2a1,1,0,0,0-1.41,1.41l2,2a.982.982,0,0,0,.71.29,1.024,1.024,0,0,0,.71-.29Zm-16,0,2-2A1,1,0,0,0,5.3,17.3l-2,2a1,1,0,0,0,0,1.41.982.982,0,0,0,.71.29,1.024,1.024,0,0,0,.71-.29Zm14-14,2-2A1,1,0,0,0,19.3,3.3l-2,2a1,1,0,0,0,0,1.41.982.982,0,0,0,.71.29,1.024,1.024,0,0,0,.71-.29Z" transform="translate(-11593 2517)" fill="#838383"/>
  </g>
  <text id="Light_Mode" data-name="Light Mode" transform="translate(109 78)" fill="#212529" font-size="10" font-family="Inter" font-weight="500"><tspan x="-26" y="0">Light Mode</tspan></text>
  <rect id="Rectangle_232054" data-name="Rectangle 232054" width="32" height="8" rx="2" transform="translate(3 24)" fill="#408dfb"/>
</svg>
