<svg xmlns="http://www.w3.org/2000/svg" xmlns:xlink="http://www.w3.org/1999/xlink" width="30" height="30" viewBox="0 0 30 30">
  <defs>
    <clipPath id="clip-path">
      <rect id="Rectangle_228197" data-name="Rectangle 228197" width="20" height="20" rx="5" transform="translate(377 153)" fill="#e8f7f1"/>
    </clipPath>
  </defs>
  <g id="Group_273135" data-name="Group 273135" transform="translate(-372 -148)">
    <rect id="Rectangle_228196" data-name="Rectangle 228196" width="30" height="30" rx="5" transform="translate(372 148)" fill="#eee"/>
    <g id="Mask_Group_89463" data-name="Mask Group 89463" clip-path="url(#clip-path)">
      <path id="file-invoice" d="M14.209,3.691l-2.37-2.323A4.779,4.779,0,0,0,8.472,0H5.4A3.371,3.371,0,0,0,2,3.334v9.334A3.372,3.372,0,0,0,5.4,16h6.8a3.372,3.372,0,0,0,3.4-3.333V6.991a4.592,4.592,0,0,0-1.394-3.3Zm-.962.943a3.363,3.363,0,0,1,.548.7H10.842a.675.675,0,0,1-.68-.667V1.773a3.4,3.4,0,0,1,.714.537l2.37,2.323Zm1,8.034a2.023,2.023,0,0,1-2.041,2H5.4a2.023,2.023,0,0,1-2.041-2V3.334a2.023,2.023,0,0,1,2.041-2H8.472c.111,0,.221.005.33.015V4.667a2.023,2.023,0,0,0,2.041,2h3.385c.01.107.016.215.016.323v5.677Zm-3.061-4H6.421a1.686,1.686,0,0,0-1.7,1.667v1.333a1.686,1.686,0,0,0,1.7,1.667h4.761a1.686,1.686,0,0,0,1.7-1.667V10.334A1.686,1.686,0,0,0,11.182,8.667Zm.34,3a.337.337,0,0,1-.34.333H6.421a.337.337,0,0,1-.34-.333V10.334A.337.337,0,0,1,6.421,10h4.761a.337.337,0,0,1,.34.333Zm-6.8-5A.674.674,0,0,1,5.4,6h1.36a.667.667,0,1,1,0,1.333H5.4A.674.674,0,0,1,4.721,6.667ZM4.721,4a.674.674,0,0,1,.68-.667h1.36a.667.667,0,1,1,0,1.333H5.4A.674.674,0,0,1,4.721,4Z" transform="translate(378.198 154.999)" fill="#838383"/>
    </g>
  </g>
</svg>
