<svg xmlns="http://www.w3.org/2000/svg" xmlns:xlink="http://www.w3.org/1999/xlink" width="30" height="30" viewBox="0 0 30 30">
  <defs>
    <clipPath id="clip-path">
      <rect id="Rectangle_228197" data-name="Rectangle 228197" width="20" height="20" rx="5" transform="translate(377 153)" fill="#e8f7f1"/>
    </clipPath>
  </defs>
  <g id="Group_273135" data-name="Group 273135" transform="translate(-372 -148)">
    <rect id="Rectangle_228196" data-name="Rectangle 228196" width="30" height="30" rx="5" transform="translate(372 148)" fill="#822fff" opacity="0.1"/>
    <g id="Mask_Group_89463" data-name="Mask Group 89463" clip-path="url(#clip-path)">
      <path id="marketplace" d="M15.6,10.577a1.661,1.661,0,0,0-.94-.543V9.667a3,3,0,1,0-6,0v.368a1.66,1.66,0,0,0-1.328,1.874l.349,2.382A2.01,2.01,0,0,0,9.659,16h4a2.01,2.01,0,0,0,1.977-1.709l.349-2.382a1.666,1.666,0,0,0-.388-1.331ZM11.658,8a1.668,1.668,0,0,1,1.665,1.667V10H9.993V9.667A1.668,1.668,0,0,1,11.658,8Zm2.658,6.1a.671.671,0,0,1-.66.57h-4A.671.671,0,0,1,9,14.1l-.349-2.382a.334.334,0,0,1,.33-.382h5.355a.334.334,0,0,1,.33.382L14.317,14.1ZM2.665,3a1,1,0,1,1,1,1A1,1,0,0,1,2.665,3ZM5.329,3a1,1,0,1,1,1,1A1,1,0,0,1,5.329,3Zm0,10.333h-2a2,2,0,0,1-2-2V6H14.656v.667a.666.666,0,1,0,1.332,0V3.333A3.336,3.336,0,0,0,12.657,0H3.331A3.336,3.336,0,0,0,0,3.333v8a3.336,3.336,0,0,0,3.331,3.333h2a.667.667,0,0,0,0-1.333Zm-2-12h9.327a2,2,0,0,1,2,2V4.667H1.332V3.333A2,2,0,0,1,3.331,1.333Z" transform="translate(379 155)" fill="#822fff"/>
    </g>
  </g>
</svg>
