<svg id="print" xmlns="http://www.w3.org/2000/svg" width="18" height="18" viewBox="0 0 18 18">
  <path id="Path_92387" data-name="Path 92387" d="M0,0H18V18H0Z" fill="none"/>
  <g id="_2mtl2d01" data-name="2mtl2d01" transform="translate(2.476 2.799)">
    <path id="Path_527862" data-name="Path 527862" d="M227.846-823.89a.693.693,0,0,0-.383.355,1.052,1.052,0,0,0-.047.191c-.01.076-.017,1.4-.017,3.526,0,2.495-.005,3.406-.019,3.406s-.5-.48-1.084-1.068-1.091-1.087-1.125-1.113a.662.662,0,0,0-.894.146.584.584,0,0,0-.127.417c.012.28-.11.141,1.821,2.072,1.839,1.841,1.748,1.757,1.981,1.807a.458.458,0,0,0,.217,0c.231-.049.144.028,1.94-1.764.922-.918,1.7-1.706,1.734-1.75a.651.651,0,0,0-.315-1.009.671.671,0,0,0-.579.08c-.035.026-.541.527-1.126,1.113s-1.072,1.068-1.084,1.068-.019-.852-.019-3.4c0-2.34-.005-3.443-.019-3.535a.634.634,0,0,0-.435-.544A.646.646,0,0,0,227.846-823.89Z" transform="translate(-221.536 823.925)" fill="#408dfb"/>
    <path id="Path_527863" data-name="Path 527863" d="M74.533-186.9a.628.628,0,0,0-.35.162.65.65,0,0,0-.181.68.638.638,0,0,0,.548.442c.19.026,11.7.026,11.885,0a.636.636,0,0,0,.548-.445.647.647,0,0,0-.2-.691.607.607,0,0,0-.355-.148C86.268-186.92,74.691-186.918,74.533-186.9Z" transform="translate(-73.969 197.994)" fill="#408dfb"/>
  </g>
</svg>
