<svg xmlns="http://www.w3.org/2000/svg" xmlns:xlink="http://www.w3.org/1999/xlink" width="48" height="48" viewBox="0 0 48 48">
  <defs>
    <clipPath id="clip-path">
      <rect id="Rectangle_231662" data-name="Rectangle 231662" width="32" height="32" transform="translate(0 0.481)" fill="#ff8484" stroke="rgba(0,0,0,0)" stroke-width="1"/>
    </clipPath>
    <clipPath id="clip-path-2">
      <rect id="Rectangle_231661" data-name="Rectangle 231661" width="28" height="28" fill="#fd9800"/>
    </clipPath>
  </defs>
  <g id="Group_272706" data-name="Group 272706" transform="translate(0 -0.481)">
    <circle id="Ellipse_2688" data-name="Ellipse 2688" cx="24" cy="24" r="24" transform="translate(0 0.481)" fill="#fff"/>
    <g id="Group_272705" data-name="Group 272705" transform="translate(8 8)">
      <g id="Group_272704" data-name="Group 272704" clip-path="url(#clip-path)">
        <g id="Group_272703" data-name="Group 272703" transform="translate(2 2.48)">
          <g id="Group_272702" data-name="Group 272702" clip-path="url(#clip-path-2)">
            <path id="Path_564768" data-name="Path 564768" d="M82.313,0H81.219a9.22,9.22,0,0,0-6.826,3.861,8.984,8.984,0,0,0-.3,9.9c.393-.132.747-.348,1.139-.488a7.382,7.382,0,0,1,7.45,1.519c1.394.11,2.931-.111,4.308.012a3.671,3.671,0,0,1,1.323.428c.267.024,1.4-1.772,1.558-2.084A9.115,9.115,0,0,0,82.313,0m1.119,5.466c.037.026.779,0,.908.008a.537.537,0,0,1,.029,1.065c-.138.018-.9-.017-.938.011a2.4,2.4,0,0,1-2.548,1.824c-.007.027.012.031.023.047.038.049.11.121.155.17.578.632,1.183,1.242,1.757,1.878.192.213.4.394.327.714a.555.555,0,0,1-.428.4c-.055,0-.118.008-.171,0a.69.69,0,0,1-.3-.155l-3-3.228a.541.541,0,0,1,.419-.9c.512-.037,1.075.039,1.586,0A1.282,1.282,0,0,0,82.3,6.544h-2.23c-.249,0-.466-.318-.46-.551a.565.565,0,0,1,.475-.519H82.3a1.3,1.3,0,0,0-1.079-.761c-.517-.037-1.087.042-1.6,0a.537.537,0,0,1,.016-1.072l4.737,0a.536.536,0,0,1,.353.856.605.605,0,0,1-.349.21H83.106a2.761,2.761,0,0,1,.325.754" transform="translate(-67.766)" fill="#fd9800"/>
            <path id="Path_564769" data-name="Path 564769" d="M0,228.463V216.5c.174-.275.329-.541.687-.6a10.814,10.814,0,0,1,2.388.066,2.49,2.49,0,0,1,1.9,2.3c-.139,2.737.178,5.644,0,8.361a2.489,2.489,0,0,1-2.328,2.427,12.757,12.757,0,0,1-1.965,0c-.358-.056-.513-.322-.687-.6" transform="translate(0 -201.1)" fill="#fd9800"/>
            <path id="Path_564770" data-name="Path 564770" d="M96.611,223.628V212.841a5.751,5.751,0,0,1,6.525-.072c.364.246.955.9,1.336.96,1.484.12,3.117-.115,4.582.011a1.643,1.643,0,0,1,0,3.281c-1.658.143-3.513-.115-5.192,0a.827.827,0,0,0,0,1.629c1.836-.11,3.873.162,5.685.007a2.077,2.077,0,0,0,1.2-.546l4.483-5.573a1.643,1.643,0,0,1,2.59,1.932c-1.713,2.282-3.185,4.961-4.947,7.185a5.323,5.323,0,0,1-3.5,1.971Z" transform="translate(-89.994 -197.303)" fill="#fd9800"/>
          </g>
        </g>
      </g>
    </g>
  </g>
</svg>
