<svg xmlns="http://www.w3.org/2000/svg" xmlns:xlink="http://www.w3.org/1999/xlink" width="48" height="48" viewBox="0 0 48 48">
  <defs>
    <clipPath id="clip-path">
      <rect id="Rectangle_231666" data-name="Rectangle 231666" width="32" height="32" transform="translate(0 -0.064)" fill="#53c538" stroke="rgba(0,0,0,0)" stroke-width="1"/>
    </clipPath>
    <clipPath id="clip-path-2">
      <rect id="Rectangle_231665" data-name="Rectangle 231665" width="27.573" height="25.27" fill="#53c538"/>
    </clipPath>
  </defs>
  <g id="Group_272720" data-name="Group 272720" transform="translate(0 0.064)">
    <circle id="Ellipse_2690" data-name="Ellipse 2690" cx="24" cy="24" r="24" transform="translate(0 -0.064)" fill="#fff"/>
    <g id="Group_272719" data-name="Group 272719" transform="translate(8 8)">
      <g id="Group_272718" data-name="Group 272718" clip-path="url(#clip-path)">
        <g id="Group_272717" data-name="Group 272717" transform="translate(2.213 3.301)">
          <g id="Group_272716" data-name="Group 272716" transform="translate(0 0)" clip-path="url(#clip-path-2)">
            <path id="Path_564774" data-name="Path 564774" d="M25.9,13.752V27.533h1.177a.691.691,0,0,1,.252.207.484.484,0,0,1-.478.714H.551a.47.47,0,0,1-.5-.677c.031-.072.214-.244.272-.244H1.673V22.623c0-.069.248-.361.37-.319,1.537.111,3.257-.138,4.771,0a.483.483,0,0,1,.312.091,1.694,1.694,0,0,1,.174.285v4.852h.46V19.465c0-.2.291-.359.484-.377,1.491-.139,3.2.114,4.714,0,.141-.034.429.208.429.317v8.125h.632V16.364c0-.145.375-.408.546-.373,1.427.1,3.016-.126,4.423,0,.237.021.658.142.658.433V27.533h.689V13.752H19.043c-.207,0-.538-.547-.285-.744,1.336-1.367,2.506-3.084,3.844-4.424.449-.45.585-.45,1.035,0,1.34,1.342,2.51,3.052,3.844,4.425.255.2-.077.744-.284.744Z" transform="translate(0 -3.185)" fill="#53c538"/>
            <path id="Path_564775" data-name="Path 564775" d="M6.375.02a6.877,6.877,0,1,0,6.168,10.758A6.9,6.9,0,0,0,6.375.02M8.118,5.187c.037.025.755-.006.878.006a.52.52,0,0,1,.031,1.031c-.135.018-.865-.018-.908.006A2.317,2.317,0,0,1,5.663,8c-.006.025.012.025.025.043.037.043.1.117.147.166.558.608,1.141,1.2,1.694,1.81.184.209.393.38.319.693a.538.538,0,0,1-.417.387c-.049-.006-.11.006-.166,0a.681.681,0,0,1-.288-.147L4.08,7.832a.525.525,0,0,1,.405-.871c.5-.037,1.037.037,1.534,0a1.221,1.221,0,0,0,1.006-.736H4.877c-.239,0-.448-.307-.442-.528a.538.538,0,0,1,.454-.5H7.025a1.255,1.255,0,0,0-1.037-.736c-.5-.037-1.049.043-1.546,0a.516.516,0,0,1,.012-1.031H9.026a.517.517,0,0,1,.338.828.588.588,0,0,1-.338.2H7.8a2.653,2.653,0,0,1,.313.73" transform="translate(-0.003 0)" fill="#53c538"/>
          </g>
        </g>
      </g>
    </g>
  </g>
</svg>
