<svg xmlns="http://www.w3.org/2000/svg" xmlns:xlink="http://www.w3.org/1999/xlink" width="24" height="24" viewBox="0 0 24 24">
  <defs>
    <clipPath id="clip-path">
      <rect id="Rectangle_6713" data-name="Rectangle 6713" width="24" height="24" transform="translate(-21474 -9856)" fill="none"/>
    </clipPath>
  </defs>
  <g id="Upload_Raw_Data" data-name="Upload Raw Data" transform="translate(21474 9856)" clip-path="url(#clip-path)">
    <path id="inventory_24dp_5F6368_FILL0_wght400_GRAD0_opsz24" d="M133.419-913.291h-1.491v-3.727h-1.491v2.236h-7.455v-2.236h-1.491v10.437h4.473v1.491h-4.473a1.436,1.436,0,0,1-1.053-.438,1.436,1.436,0,0,1-.438-1.053v-10.437a1.436,1.436,0,0,1,.438-1.053,1.436,1.436,0,0,1,1.053-.438H124.6a2.033,2.033,0,0,1,.8-1.072,2.22,2.22,0,0,1,1.3-.419,2.236,2.236,0,0,1,1.333.419,2.047,2.047,0,0,1,.792,1.072h3.094a1.436,1.436,0,0,1,1.053.438,1.436,1.436,0,0,1,.438,1.053Zm-6.709-3.727a.721.721,0,0,0,.531-.214.721.721,0,0,0,.214-.531.721.721,0,0,0-.214-.531.721.721,0,0,0-.531-.214.721.721,0,0,0-.531.214.721.721,0,0,0-.214.531.721.721,0,0,0,.214.531A.721.721,0,0,0,126.709-917.018Z" transform="translate(-21589.287 -8931.455)" fill="#fff"/>
    <path id="inventory_24dp_5F6368_FILL0_wght400_GRAD0_opsz24-2" data-name="inventory_24dp_5F6368_FILL0_wght400_GRAD0_opsz24" d="M129.319-905.892l-3.168-3.168,1.044-1.044,2.125,2.125,4.212-4.212,1.044,1.044Z" transform="translate(-21589.287 -8931.455)" fill="#fff"/>
  </g>
</svg>
