<svg xmlns="http://www.w3.org/2000/svg" xmlns:xlink="http://www.w3.org/1999/xlink" width="42" height="42" viewBox="0 0 42 42">
  <defs>
    <clipPath id="clip-path">
      <rect id="Rectangle_227" data-name="Rectangle 227" width="42" height="42" transform="translate(1724 29)" fill="none"/>
    </clipPath>
  </defs>
  <g id="Mask_Group_19" data-name="Mask Group 19" transform="translate(-1724 -29)" clip-path="url(#clip-path)">
    <path id="bell-notification-social-media" d="M21.907,26.25a6.585,6.585,0,0,1-12.9,0h12.9Zm4.74-17.062A4.594,4.594,0,1,0,22.04,4.594,4.605,4.605,0,0,0,26.647,9.188Zm.316,2.609c-.105,0-.209.016-.316.016a7.237,7.237,0,0,1-7.24-7.219A7.137,7.137,0,0,1,20.213,1.3,10.963,10.963,0,0,0,4.338,8.552L1.245,18.523a3.939,3.939,0,0,0,3.772,5.1H25.625a3.939,3.939,0,0,0,3.713-5.278l-2.377-6.552Z" transform="translate(1729.496 34.251)" fill="#21263c"/>
    <circle id="Ellipse_10" data-name="Ellipse 10" cx="5" cy="5" r="5" transform="translate(1751 34)" fill="#ea4335"/>
  </g>
</svg>
