<svg id="Group_272930" data-name="Group 272930" xmlns="http://www.w3.org/2000/svg" width="24" height="24" viewBox="0 0 24 24">
  <rect id="Rectangle_227924" data-name="Rectangle 227924" width="24" height="24" fill="#fff" opacity="0"/>
  <g id="Layer_1-2" transform="translate(4.262 3.499)">
    <path id="Path_528959" data-name="Path 528959" d="M127.312,204.579a.742.742,0,0,0-.047-.153l-.035-.071c-.012-.024-.027-.047-.039-.071s-.031-.043-.047-.063a.753.753,0,0,0-.055-.059c-.02-.02-.039-.035-.059-.055l-.063-.047a.635.635,0,0,0-.071-.039l-.071-.035a.743.743,0,0,0-.153-.047l-.078-.012a1.1,1.1,0,0,0-.161,0,.469.469,0,0,0-.078.012.743.743,0,0,0-.153.047l-.071.035c-.024.012-.047.027-.071.039s-.043.031-.063.047a.75.75,0,0,0-.059.055c-.02.02-.035.039-.055.059s-.031.043-.047.063a.639.639,0,0,0-.039.071l-.035.071a.745.745,0,0,0-.047.153c0,.027-.008.055-.012.078s0,.055,0,.082a.58.58,0,0,0,0,.082.471.471,0,0,0,.012.078.744.744,0,0,0,.047.153l.035.071c.012.024.027.047.039.071s.031.043.047.063a.751.751,0,0,0,.055.059c.02.02.039.035.059.055l.063.047a.635.635,0,0,0,.071.039l.071.035a.57.57,0,0,0,.075.027.576.576,0,0,0,.078.02l.078.012c.027,0,.055,0,.082,0a.579.579,0,0,0,.082,0,.471.471,0,0,0,.078-.012.577.577,0,0,0,.078-.02.571.571,0,0,0,.075-.027l.071-.035c.024-.012.047-.027.071-.039s.043-.031.063-.047a.751.751,0,0,0,.059-.055c.02-.02.035-.039.055-.059s.031-.043.047-.063a.631.631,0,0,0,.039-.071l.035-.071a.743.743,0,0,0,.047-.153c0-.027.008-.055.012-.078s0-.055,0-.082a.58.58,0,0,0,0-.082.471.471,0,0,0-.012-.078Zm5.116,0a.742.742,0,0,0-.047-.153l-.035-.071c-.012-.024-.027-.047-.039-.071s-.031-.043-.047-.063a.756.756,0,0,0-.055-.059c-.02-.02-.039-.035-.059-.055l-.063-.047a.635.635,0,0,0-.071-.039l-.071-.035a.743.743,0,0,0-.153-.047l-.078-.012a1.1,1.1,0,0,0-.161,0,.469.469,0,0,0-.078.012.743.743,0,0,0-.153.047l-.071.035c-.024.012-.047.027-.071.039s-.043.031-.063.047a.75.75,0,0,0-.059.055c-.02.02-.035.039-.055.059s-.031.043-.047.063a.634.634,0,0,0-.039.071l-.035.071a.745.745,0,0,0-.047.153c0,.027-.008.055-.012.078s0,.055,0,.082a.58.58,0,0,0,0,.082.471.471,0,0,0,.012.078.744.744,0,0,0,.047.153l.035.071c.012.024.027.047.039.071s.031.043.047.063a.751.751,0,0,0,.055.059c.02.02.039.035.059.055l.063.047a.635.635,0,0,0,.071.039l.071.035a.57.57,0,0,0,.075.027.576.576,0,0,0,.078.02l.078.012c.027,0,.055,0,.082,0a.579.579,0,0,0,.082,0,.471.471,0,0,0,.078-.012.577.577,0,0,0,.078-.02.571.571,0,0,0,.075-.027l.071-.035c.024-.012.047-.027.071-.039s.043-.031.063-.047a.748.748,0,0,0,.059-.055c.02-.02.035-.039.055-.059s.031-.043.047-.063a.631.631,0,0,0,.039-.071l.035-.071a.742.742,0,0,0,.047-.153c0-.027.008-.055.012-.078s0-.055,0-.082a.578.578,0,0,0,0-.082.471.471,0,0,0-.012-.078Z" transform="translate(-122.032 -197.323)" fill="#fff"/>
    <path id="Path_528960" data-name="Path 528960" d="M13.985,13.941v-.007L12.945,5.809a2.62,2.62,0,0,0-2.6-2.312h-.128V3.178a3.176,3.176,0,0,0-6.353,0v.319H3.733a2.62,2.62,0,0,0-2.6,2.312L.091,13.931v.007a2.617,2.617,0,0,0,2.6,2.921h8.694a2.617,2.617,0,0,0,2.6-2.921ZM5.179,3.175A1.86,1.86,0,0,1,7.036,1.317c1.024,0,.962.194,1.314.543a1.84,1.84,0,0,1,.543,1.314v.319H5.179Zm7.176,11.932a1.289,1.289,0,0,1-.972.435H2.689a1.3,1.3,0,0,1-1.294-1.449L2.435,5.968V5.961A1.3,1.3,0,0,1,3.73,4.808h6.61a1.3,1.3,0,0,1,1.294,1.153v.007l1.041,8.125a1.291,1.291,0,0,1-.323,1.014Z" fill="#fff"/>
  </g>
</svg>
