<svg id="Group_273030" data-name="Group 273030" xmlns="http://www.w3.org/2000/svg" width="24" height="24" viewBox="0 0 24 24">
  <rect id="Rectangle_227917" data-name="Rectangle 227917" width="24" height="24" fill="none"/>
  <g id="Layer_1-2" transform="translate(4.07 4.498)">
    <path id="Path_528957" data-name="Path 528957" d="M15.4,2.93a2.083,2.083,0,0,0-1.62-.769H7.524a.612.612,0,1,0,0,1.225h6.257a.846.846,0,0,1,.657.309.813.813,0,0,1,.164.7L13.533,9.17A1.555,1.555,0,0,1,12,10.386H6.511A1.6,1.6,0,0,1,4.944,9.121l-1.6-7.762A1.722,1.722,0,0,0,1.66,0H.62A.618.618,0,0,0,0,.612a.618.618,0,0,0,.62.612H1.66a.476.476,0,0,1,.468.38l1.6,7.768a2.839,2.839,0,0,0,2.782,2.244H12A2.84,2.84,0,0,0,13.759,11a2.777,2.777,0,0,0,.982-1.565L15.81,4.663a2.027,2.027,0,0,0-.409-1.73Z" fill="#fff"/>
    <circle id="Ellipse_2525" data-name="Ellipse 2525" cx="1.094" cy="1.094" r="1.094" transform="translate(4.583 12.817)" fill="#fff"/>
    <path id="Path_528958" data-name="Path 528958" d="M381.994,416.6a1.094,1.094,0,1,0,1.094,1.094A1.095,1.095,0,0,0,381.994,416.6Z" transform="translate(-369.271 -403.783)" fill="#fff"/>
  </g>
</svg>
