<svg id="Sale" xmlns="http://www.w3.org/2000/svg" width="24" height="24" viewBox="0 0 24 24">
  <rect id="Rectangle_227917" data-name="Rectangle 227917" width="24" height="24" fill="none"/>
  <g id="user" transform="translate(3 3.961)">
    <path id="Path_564810" data-name="Path 564810" d="M10.055,7.779A3.975,3.975,0,0,0,14.11,3.89,3.975,3.975,0,0,0,10.055,0,3.975,3.975,0,0,0,6,3.89a3.979,3.979,0,0,0,4.055,3.89Zm0-6.483a2.65,2.65,0,0,1,2.7,2.593,2.65,2.65,0,0,1-2.7,2.593,2.65,2.65,0,0,1-2.7-2.593A2.65,2.65,0,0,1,10.055,1.3Z" transform="translate(-1.055 0)" fill="#fff"/>
    <path id="Path_564811" data-name="Path 564811" d="M9,14a5.926,5.926,0,0,0-6,5.834.667.667,0,0,0,1.333,0A4.6,4.6,0,0,1,9,15.3a4.6,4.6,0,0,1,4.667,4.538.667.667,0,0,0,1.333,0A5.926,5.926,0,0,0,9,14Z" transform="translate(0 -4.483)" fill="#fff"/>
  </g>
</svg>
